<?xml version="1.0" encoding="utf-8"?>
<!-- Generator: Adobe Illustrator 28.2.0, SVG Export Plug-In . SVG Version: 6.00 Build 0)  -->
<svg version="1.1" id="Layer_1" xmlns="http://www.w3.org/2000/svg" xmlns:xlink="http://www.w3.org/1999/xlink" x="0px" y="0px"
	 viewBox="0 0 176.9 20" style="enable-background:new 0 0 176.9 20;" xml:space="preserve">
<style type="text/css">
	.st0{fill:#0AA6D5;}
</style>
<g>
	<path class="st0" d="M1,18l1.8-3.2c1,1,2.1,1.5,3.9,1.5c3.2,0,4.8-2.7,4.8-5.5c0-0.1,0-0.3,0-0.4c-0.9,1.3-2.9,2.5-5,2.5
		C3.1,12.9,0,10.8,0,6.6C0,2.9,3,0,7.4,0c5.9,0,8.4,4.5,8.4,10c0,5.9-3.3,10-9,10C4.4,20,2.4,19.2,1,18z M11.5,7.6
		c-0.2-1.9-1.2-3.9-3.9-3.9c-2.2,0-3.5,1.5-3.5,2.8c0,2,1.8,2.9,3.6,2.9C9.2,9.4,10.6,8.7,11.5,7.6z"/>
	<path class="st0" d="M23.1,19.7L30.1,4h-9.8V0.3h14.5v2.9l-7.2,16.5H23.1z"/>
	<path class="st0" d="M39.3,10c0-5,2.5-10,8-10s8,5,8,10s-2.5,10-8,10S39.3,15,39.3,10z M51.1,10c0-3.6-1-6.3-3.8-6.3
		c-2.8,0-3.8,2.8-3.8,6.3s1,6.3,3.8,6.3S51.1,13.6,51.1,10z"/>
	<path d="M61.1,19.7V0.3h7.6C74.8,0.3,79,4.2,79,10c0,5.9-4.2,9.7-10.2,9.7H61.1z M74.8,10c0-3.4-2.1-6-6-6h-3.5V16h3.5
		C72.6,16,74.8,13.3,74.8,10z"/>
	<path d="M84.8,19.7V0.3h13.7V4H89V8h9.4v3.6H89V16h9.6v3.6L84.8,19.7L84.8,19.7z"/>
	<path d="M103.3,16.9l2.3-3.2c1.4,1.4,3.5,2.6,6.2,2.6c2.3,0,3.4-1,3.4-2.2c0-3.4-11.1-1-11.1-8.3c0-3.2,2.8-5.9,7.3-5.9
		c3.1,0,5.6,0.9,7.5,2.7l-2.3,3.1c-1.6-1.5-3.7-2.1-5.6-2.1c-1.7,0-2.7,0.8-2.7,1.9c0,3,11.1,1,11.1,8.2c0,3.5-2.6,6.2-7.8,6.2
		C107.8,20,105.2,18.8,103.3,16.9z"/>
	<path d="M125,19.7V0.3h4.1v19.4H125z"/>
	<path d="M134.9,10c0-6.1,4.6-10,10.3-10c4,0,6.5,2,8,4.3l-3.4,1.9c-0.9-1.4-2.5-2.5-4.6-2.5c-3.5,0-6.1,2.7-6.1,6.4
		s2.5,6.3,6.1,6.3c1.7,0,3.3-0.8,4.1-1.5v-2.3h-5.1V9h9.2v7.4c-2,2.2-4.7,3.6-8.2,3.6C139.5,20,134.9,16.1,134.9,10z"/>
	<path d="M172.9,19.7l-9.2-12.6v12.6h-4.1V0.3h4.2l9,12.1V0.3h4.1v19.4H172.9z"/>
</g>
</svg>
